<svg width="18" height="18" viewBox="0 0 18 18" fill="none" xmlns="http://www.w3.org/2000/svg">
<path d="M9.09 4.50781C11.5509 4.50781 13.5822 6.53906 13.5822 9C13.5822 11.5 11.5509 13.4922 9.09 13.4922C6.59 13.4922 4.59781 11.5 4.59781 9C4.59781 6.53906 6.59 4.50781 9.09 4.50781ZM9.09 11.9297C10.6916 11.9297 11.9806 10.6406 11.9806 9C11.9806 7.39844 10.6916 6.10938 9.09 6.10938C7.44937 6.10938 6.16031 7.39844 6.16031 9C6.16031 10.6406 7.48843 11.9297 9.09 11.9297ZM14.7931 4.35156C14.7931 4.9375 14.3244 5.40625 13.7384 5.40625C13.1525 5.40625 12.6837 4.9375 12.6837 4.35156C12.6837 3.76562 13.1525 3.29688 13.7384 3.29688C14.3244 3.29688 14.7931 3.76562 14.7931 4.35156ZM17.7619 5.40625C17.84 6.85156 17.84 11.1875 17.7619 12.6328C17.6837 14.0391 17.3712 15.25 16.3556 16.3047C15.34 17.3203 14.09 17.6328 12.6837 17.7109C11.2384 17.7891 6.9025 17.7891 5.45718 17.7109C4.05093 17.6328 2.84 17.3203 1.78531 16.3047C0.769684 15.25 0.457184 14.0391 0.379059 12.6328C0.300934 11.1875 0.300934 6.85156 0.379059 5.40625C0.457184 4 0.769684 2.75 1.78531 1.73438C2.84 0.71875 4.05093 0.40625 5.45718 0.328125C6.9025 0.25 11.2384 0.25 12.6837 0.328125C14.09 0.40625 15.34 0.71875 16.3556 1.73438C17.3712 2.75 17.6837 4 17.7619 5.40625ZM15.8869 14.1562C16.3556 13.0234 16.2384 10.2891 16.2384 9C16.2384 7.75 16.3556 5.01562 15.8869 3.84375C15.5744 3.10156 14.9884 2.47656 14.2462 2.20312C13.0744 1.73438 10.34 1.85156 9.09 1.85156C7.80093 1.85156 5.06656 1.73438 3.93375 2.20312C3.1525 2.51562 2.56656 3.10156 2.25406 3.84375C1.78531 5.01562 1.9025 7.75 1.9025 9C1.9025 10.2891 1.78531 13.0234 2.25406 14.1562C2.56656 14.9375 3.1525 15.5234 3.93375 15.8359C5.06656 16.3047 7.80093 16.1875 9.09 16.1875C10.34 16.1875 13.0744 16.3047 14.2462 15.8359C14.9884 15.5234 15.6134 14.9375 15.8869 14.1562Z" fill="#0C0C0C"/>
</svg>
