<svg width="19" height="18" viewBox="0 0 19 18" fill="none" xmlns="http://www.w3.org/2000/svg">
<path d="M17.01 0.25C17.6741 0.25 18.26 0.835938 18.26 1.53906V16.5C18.26 17.2031 17.6741 17.75 17.01 17.75H1.97095C1.30688 17.75 0.76001 17.2031 0.76001 16.5V1.53906C0.76001 0.835938 1.30688 0.25 1.97095 0.25H17.01ZM6.03345 15.25V6.92969H3.45532V15.25H6.03345ZM4.74438 5.75781C5.5647 5.75781 6.22876 5.09375 6.22876 4.27344C6.22876 3.45312 5.5647 2.75 4.74438 2.75C3.88501 2.75 3.22095 3.45312 3.22095 4.27344C3.22095 5.09375 3.88501 5.75781 4.74438 5.75781ZM15.76 15.25V10.6797C15.76 8.45312 15.2522 6.69531 12.635 6.69531C11.385 6.69531 10.5256 7.39844 10.1741 8.0625H10.135V6.92969H7.67407V15.25H10.2522V11.1484C10.2522 10.0547 10.4475 9 11.8147 9C13.1428 9 13.1428 10.25 13.1428 11.1875V15.25H15.76Z" fill="#0C0C0C"/>
</svg>
