<svg width="20" height="20" viewBox="0 0 20 20" fill="none" xmlns="http://www.w3.org/2000/svg">
<path d="M6.63531 15.5469C6.63531 15.625 6.55719 15.6641 6.44 15.6641C6.32281 15.7031 6.24469 15.625 6.24469 15.5469C6.24469 15.4688 6.32281 15.3906 6.44 15.3906C6.55719 15.3906 6.63531 15.4688 6.63531 15.5469ZM5.42438 15.3516C5.46344 15.2734 5.58063 15.2344 5.69781 15.2734C5.815 15.3125 5.85406 15.3906 5.85406 15.4688C5.815 15.5469 5.69781 15.5859 5.61969 15.5469C5.5025 15.5469 5.42438 15.4297 5.42438 15.3516ZM7.18219 15.3125C7.26031 15.2734 7.3775 15.3516 7.3775 15.4297C7.41656 15.5078 7.33844 15.5469 7.22125 15.5859C7.10406 15.625 6.98688 15.5859 6.98688 15.5078C6.98688 15.3906 7.065 15.3125 7.18219 15.3125ZM9.72125 0.3125C15.1509 0.3125 19.565 4.45312 19.565 9.84375C19.565 14.1797 16.9088 17.8906 13.0025 19.1797C12.4947 19.2969 12.2994 18.9844 12.2994 18.7109C12.2994 18.3984 12.3384 16.7578 12.3384 15.4688C12.3384 14.5312 12.0259 13.9453 11.6744 13.6328C13.8619 13.3984 16.1666 13.0859 16.1666 9.33594C16.1666 8.24219 15.7759 7.73438 15.1509 7.03125C15.2291 6.75781 15.5806 5.74219 15.0338 4.375C14.2134 4.10156 12.3384 5.42969 12.3384 5.42969C11.5572 5.19531 10.7369 5.11719 9.8775 5.11719C9.05719 5.11719 8.23688 5.19531 7.45563 5.42969C7.45563 5.42969 5.54156 4.14062 4.76031 4.375C4.21344 5.74219 4.52594 6.75781 4.64313 7.03125C4.01813 7.73438 3.70563 8.24219 3.70563 9.33594C3.70563 13.0859 5.93219 13.3984 8.11969 13.6328C7.80719 13.9062 7.57281 14.3359 7.49469 14.9609C6.90875 15.2344 5.5025 15.6641 4.64313 14.1406C4.09625 13.2031 3.11969 13.125 3.11969 13.125C2.18219 13.125 3.08063 13.75 3.08063 13.75C3.70563 14.0234 4.13531 15.1562 4.13531 15.1562C4.72125 16.9141 7.45563 16.3281 7.45563 16.3281C7.45563 17.1484 7.45563 18.4766 7.45563 18.75C7.45563 18.9844 7.29938 19.2969 6.79156 19.2188C2.88531 17.8906 0.190002 14.1797 0.190002 9.84375C0.190002 4.45312 4.33063 0.3125 9.72125 0.3125ZM3.97906 13.7891C4.01813 13.75 4.09625 13.7891 4.17438 13.8281C4.2525 13.9062 4.2525 14.0234 4.21344 14.0625C4.13531 14.1016 4.05719 14.0625 3.97906 14.0234C3.94 13.9453 3.90094 13.8281 3.97906 13.7891ZM3.54938 13.4766C3.58844 13.4375 3.6275 13.4375 3.70563 13.4766C3.78375 13.5156 3.82281 13.5547 3.82281 13.5938C3.78375 13.6719 3.70563 13.6719 3.6275 13.6328C3.54938 13.5938 3.51031 13.5547 3.54938 13.4766ZM4.79938 14.8828C4.8775 14.8047 4.99469 14.8438 5.07281 14.9219C5.15094 15 5.15094 15.1172 5.11188 15.1562C5.07281 15.2344 4.95563 15.1953 4.8775 15.1172C4.76031 15.0391 4.76031 14.9219 4.79938 14.8828ZM4.36969 14.2969C4.44781 14.2578 4.52594 14.2969 4.60406 14.375C4.64313 14.4531 4.64313 14.5703 4.60406 14.6094C4.52594 14.6484 4.44781 14.6094 4.36969 14.5312C4.29156 14.4531 4.29156 14.3359 4.36969 14.2969Z" fill="#0C0C0C"/>
</svg>
